<mxfile host="Electron" agent="Mozilla/5.0 (X11; Linux x86_64) AppleWebKit/537.36 (KHTML, like Gecko) draw.io/26.1.1 Chrome/134.0.6998.205 Electron/35.5.1 Safari/537.36" version="26.1.1">
  <diagram name="Page-1" id="ZEqq7-FIUo7MHZhZFT9i">
    <mxGraphModel dx="3774" dy="1208" grid="1" gridSize="10" guides="1" tooltips="1" connect="1" arrows="1" fold="1" page="1" pageScale="1" pageWidth="850" pageHeight="1100" math="0" shadow="0">
      <root>
        <mxCell id="0" />
        <mxCell id="1" parent="0" />
        <mxCell id="y8PmSzxZw8Q_Zt96MKSz-2" value="" style="rounded=0;whiteSpace=wrap;html=1;hachureGap=4;fontFamily=Architects Daughter;fontSource=https%3A%2F%2Ffonts.googleapis.com%2Fcss%3Ffamily%3DArchitects%2BDaughter;fillColor=none;strokeWidth=4;" parent="1" vertex="1">
          <mxGeometry x="-1670" y="272.5" width="805" height="570" as="geometry" />
        </mxCell>
        <mxCell id="fEZHh300B3HX85p2Q-s8-12" value="" style="curved=1;endArrow=none;html=1;rounded=0;hachureGap=4;fontFamily=Architects Daughter;fontSource=https%3A%2F%2Ffonts.googleapis.com%2Fcss%3Ffamily%3DArchitects%2BDaughter;endFill=0;dashed=1;fillColor=#e1d5e7;strokeColor=#9673a6;strokeWidth=2;" parent="1" edge="1">
          <mxGeometry width="50" height="50" relative="1" as="geometry">
            <mxPoint x="-1313" y="712" as="sourcePoint" />
            <mxPoint x="-1236" y="404" as="targetPoint" />
            <Array as="points">
              <mxPoint x="-1265" y="587" />
              <mxPoint x="-1325" y="487" />
            </Array>
          </mxGeometry>
        </mxCell>
        <mxCell id="y8PmSzxZw8Q_Zt96MKSz-3" value="" style="verticalLabelPosition=bottom;verticalAlign=top;html=1;shape=mxgraph.basic.6_point_star;hachureGap=4;fontFamily=Architects Daughter;fontSource=https%3A%2F%2Ffonts.googleapis.com%2Fcss%3Ffamily%3DArchitects%2BDaughter;fillColor=#d5e8d4;strokeColor=#82b366;" parent="1" vertex="1">
          <mxGeometry x="-1550" y="389.99625000000003" width="32.2" height="26.5625" as="geometry" />
        </mxCell>
        <mxCell id="y8PmSzxZw8Q_Zt96MKSz-5" value="" style="verticalLabelPosition=bottom;verticalAlign=top;html=1;shape=mxgraph.basic.6_point_star;hachureGap=4;fontFamily=Architects Daughter;fontSource=https%3A%2F%2Ffonts.googleapis.com%2Fcss%3Ffamily%3DArchitects%2BDaughter;fillColor=#d5e8d4;strokeColor=#82b366;" parent="1" vertex="1">
          <mxGeometry x="-1026" y="498.28125" width="32.2" height="26.5625" as="geometry" />
        </mxCell>
        <mxCell id="ptnRmMah_1VEgoJDm3bG-10" value="" style="group;rotation=-30;" parent="1" vertex="1" connectable="0">
          <mxGeometry x="-1379" y="722.0037500000001" width="134.3775" height="106.73829787234044" as="geometry" />
        </mxCell>
        <mxCell id="ptnRmMah_1VEgoJDm3bG-4" value="" style="ellipse;whiteSpace=wrap;html=1;aspect=fixed;hachureGap=4;fontFamily=Architects Daughter;fontSource=https%3A%2F%2Ffonts.googleapis.com%2Fcss%3Ffamily%3DArchitects%2BDaughter;fillColor=#e1d5e7;strokeColor=#9673a6;rotation=15;gradientColor=none;" parent="ptnRmMah_1VEgoJDm3bG-10" vertex="1">
          <mxGeometry x="28" y="-9" width="51.56995468231933" height="51.56995468231933" as="geometry" />
        </mxCell>
        <mxCell id="ptnRmMah_1VEgoJDm3bG-5" value="" style="ellipse;whiteSpace=wrap;html=1;hachureGap=4;fontFamily=Architects Daughter;fontSource=https%3A%2F%2Ffonts.googleapis.com%2Fcss%3Ffamily%3DArchitects%2BDaughter;fillColor=#e1d5e7;strokeColor=#9673a6;rotation=15;" parent="ptnRmMah_1VEgoJDm3bG-10" vertex="1">
          <mxGeometry x="26" y="-5" width="7.814687103682168" height="29.953325112128113" as="geometry" />
        </mxCell>
        <mxCell id="ptnRmMah_1VEgoJDm3bG-6" value="" style="endArrow=classic;html=1;rounded=0;hachureGap=4;fontFamily=Architects Daughter;fontSource=https%3A%2F%2Ffonts.googleapis.com%2Fcss%3Ffamily%3DArchitects%2BDaughter;dashed=1;fillColor=#e1d5e7;strokeColor=#9673a6;dashPattern=1 1;entryX=0.495;entryY=0.582;entryDx=0;entryDy=0;entryPerimeter=0;" parent="ptnRmMah_1VEgoJDm3bG-10" edge="1">
          <mxGeometry width="50" height="50" relative="1" as="geometry">
            <mxPoint x="56" y="15" as="sourcePoint" />
            <mxPoint x="95" y="-86" as="targetPoint" />
          </mxGeometry>
        </mxCell>
        <mxCell id="fEZHh300B3HX85p2Q-s8-7" value="" style="group;rotation=0;" parent="1" vertex="1" connectable="0">
          <mxGeometry x="-1255" y="317.0037500000001" width="134.3775" height="106.73829787234044" as="geometry" />
        </mxCell>
        <mxCell id="fEZHh300B3HX85p2Q-s8-8" value="" style="ellipse;whiteSpace=wrap;html=1;aspect=fixed;hachureGap=4;fontFamily=Architects Daughter;fontSource=https%3A%2F%2Ffonts.googleapis.com%2Fcss%3Ffamily%3DArchitects%2BDaughter;fillColor=#e1d5e7;strokeColor=#9673a6;rotation=45;gradientColor=none;" parent="fEZHh300B3HX85p2Q-s8-7" vertex="1">
          <mxGeometry x="12" y="41" width="51.56995468231933" height="51.56995468231933" as="geometry" />
        </mxCell>
        <mxCell id="fEZHh300B3HX85p2Q-s8-9" value="" style="ellipse;whiteSpace=wrap;html=1;hachureGap=4;fontFamily=Architects Daughter;fontSource=https%3A%2F%2Ffonts.googleapis.com%2Fcss%3Ffamily%3DArchitects%2BDaughter;fillColor=#e1d5e7;strokeColor=#9673a6;rotation=45;" parent="fEZHh300B3HX85p2Q-s8-7" vertex="1">
          <mxGeometry x="17" y="36" width="7.814687103682168" height="29.953325112128113" as="geometry" />
        </mxCell>
        <mxCell id="fEZHh300B3HX85p2Q-s8-10" value="" style="endArrow=classic;html=1;rounded=0;hachureGap=4;fontFamily=Architects Daughter;fontSource=https%3A%2F%2Ffonts.googleapis.com%2Fcss%3Ffamily%3DArchitects%2BDaughter;dashed=1;fillColor=#e1d5e7;strokeColor=#9673a6;dashPattern=1 1;entryX=0.495;entryY=0.582;entryDx=0;entryDy=0;entryPerimeter=0;" parent="fEZHh300B3HX85p2Q-s8-7" edge="1">
          <mxGeometry width="50" height="50" relative="1" as="geometry">
            <mxPoint x="41" y="67" as="sourcePoint" />
            <mxPoint x="125" y="-1" as="targetPoint" />
          </mxGeometry>
        </mxCell>
        <mxCell id="BZ1c2jyNA530m5dTdvqK-2" value="" style="ellipse;whiteSpace=wrap;html=1;hachureGap=4;fontFamily=Architects Daughter;fontSource=https%3A%2F%2Ffonts.googleapis.com%2Fcss%3Ffamily%3DArchitects%2BDaughter;fillColor=#e1d5e7;strokeColor=#9673a6;rotation=45;" parent="1" vertex="1">
          <mxGeometry x="-1204" y="386.0037500000001" width="7.814687103682168" height="29.953325112128113" as="geometry" />
        </mxCell>
        <mxCell id="BZ1c2jyNA530m5dTdvqK-3" value="" style="ellipse;whiteSpace=wrap;html=1;hachureGap=4;fontFamily=Architects Daughter;fontSource=https%3A%2F%2Ffonts.googleapis.com%2Fcss%3Ffamily%3DArchitects%2BDaughter;fillColor=#e1d5e7;strokeColor=#9673a6;rotation=15;" parent="1" vertex="1">
          <mxGeometry x="-1305" y="730.0037500000001" width="7.814687103682168" height="29.953325112128113" as="geometry" />
        </mxCell>
      </root>
    </mxGraphModel>
  </diagram>
</mxfile>
